<svg xmlns="http://www.w3.org/2000/svg" width="72" viewBox="0 0 54 33" height="44" version="1.0"><defs><clipPath id="a"><path d="M11 25h32v4.55H11zm0 0"/></clipPath><clipPath id="b"><path d="M10.04 3.3H27V25H10.04zm0 0"/></clipPath><clipPath id="c"><path d="M26 3.3h17.79V25H26zm0 0"/></clipPath></defs><path fill="#FFF" d="M-5.4-3.3h64.8v39.6H-5.4z"/><path fill="#FFF" d="M-5.4-3.3h64.8v39.6H-5.4z"/><g clip-path="url(#a)"><path d="M16.172 29.406v-1.734c0-.668-.402-1.102-1.098-1.102-.347 0-.722.117-.984.492-.203-.316-.492-.492-.926-.492a.938.938 0 0 0-.812.407v-.348h-.606v2.777h.606v-1.535c0-.488.261-.723.668-.723.402 0 .605.262.605.723v1.535h.61v-1.535c0-.488.288-.723.663-.723.407 0 .61.262.61.723v1.535zm9-2.777h-.98v-.84h-.61v.84h-.55v.55h.55v1.274c0 .633.262 1.012.953 1.012.262 0 .55-.086.754-.203l-.172-.52a.987.987 0 0 1-.523.145c-.29 0-.403-.176-.403-.465V27.18h.98zm5.152-.059a.817.817 0 0 0-.722.407v-.348h-.61v2.777h.61v-1.562c0-.461.203-.723.578-.723.117 0 .261.027.379.059l.171-.578c-.117-.032-.289-.032-.406-.032zm-7.785.29c-.289-.204-.695-.29-1.129-.29-.695 0-1.156.348-1.156.899 0 .46.348.722.953.808l.293.032c.316.054.488.144.488.289 0 .199-.23.343-.636.343-.403 0-.723-.144-.926-.289l-.29.465c.321.23.755.348 1.188.348.813 0 1.274-.38 1.274-.899 0-.492-.375-.75-.953-.84l-.293-.027c-.258-.027-.461-.086-.461-.262 0-.199.203-.316.52-.316.347 0 .694.145.87.23zm16.148-.29a.821.821 0 0 0-.722.407v-.348h-.606v2.777h.606v-1.562c0-.461.203-.723.578-.723.117 0 .262.027.379.059l.172-.578c-.114-.032-.29-.032-.407-.032zm-7.753 1.446c0 .84.578 1.449 1.476 1.449.403 0 .695-.086.985-.32l-.29-.493c-.234.176-.464.262-.726.262-.492 0-.84-.348-.84-.898 0-.52.348-.868.84-.895.262 0 .492.086.726.262l.29-.492c-.29-.235-.583-.32-.985-.32-.898 0-1.476.609-1.476 1.445zm5.613 0v-1.387h-.606v.348c-.203-.262-.492-.407-.87-.407-.782 0-1.387.61-1.387 1.446 0 .84.605 1.449 1.386 1.449.407 0 .696-.145.871-.406v.347h.606zm-2.227 0c0-.489.317-.895.84-.895.492 0 .836.375.836.895 0 .492-.344.898-.836.898-.523-.027-.84-.406-.84-.898zm-7.265-1.446c-.809 0-1.39.578-1.39 1.446 0 .87.581 1.449 1.417 1.449.406 0 .813-.117 1.129-.38l-.29-.433c-.23.176-.519.29-.808.29-.375 0-.754-.172-.84-.665h2.055v-.23c.027-.899-.492-1.477-1.273-1.477zm0 .52c.375 0 .636.234.695.668H26.3c.06-.375.321-.668.755-.668zm15.078.926V25.53h-.606v1.446c-.203-.262-.492-.407-.87-.407-.782 0-1.387.61-1.387 1.446 0 .84.605 1.449 1.386 1.449.407 0 .696-.145.871-.406v.347h.606zm-2.227 0c0-.489.317-.895.836-.895.492 0 .84.375.84.895 0 .492-.348.898-.84.898-.52-.027-.836-.406-.836-.898zm-20.316 0v-1.387h-.61v.348c-.203-.262-.492-.407-.867-.407-.781 0-1.39.61-1.39 1.446 0 .84.609 1.449 1.39 1.449.403 0 .692-.145.867-.406v.347h.61zm-2.258 0c0-.489.316-.895.836-.895.492 0 .84.375.84.895 0 .492-.348.898-.84.898-.52-.027-.836-.406-.836-.898zm0 0"/></g><path fill="#FF5F00" d="M22.336 5.543h9.117v16.371h-9.117zm0 0"/><g clip-path="url(#b)"><path fill="#EB001B" d="M22.918 13.727c0-3.325 1.562-6.278 3.965-8.184a10.354 10.354 0 0 0-6.426-2.23 10.41 10.41 0 0 0-10.418 10.414A10.407 10.407 0 0 0 20.457 24.14c2.43 0 4.66-.84 6.426-2.227a10.394 10.394 0 0 1-3.965-8.187zm0 0"/></g><g clip-path="url(#c)"><path fill="#F79E1B" d="M43.754 13.727c0 5.757-4.66 10.414-10.418 10.414-2.434 0-4.66-.84-6.426-2.227a10.358 10.358 0 0 0 3.965-8.187c0-3.325-1.563-6.278-3.965-8.184a10.345 10.345 0 0 1 6.426-2.23c5.758 0 10.418 4.687 10.418 10.414zm0 0"/></g></svg>