<svg xmlns="http://www.w3.org/2000/svg" width="72" viewBox="0 0 54 33" height="44" version="1.0"><defs><clipPath id="a"><path d="M3.3 9H13v9H3.3zm0 0"/></clipPath></defs><path fill="#FFF" d="M-5.4-3.3h64.8v39.6H-5.4z"/><path fill="#FFF" d="M-5.4-3.3h64.8v39.6H-5.4z"/><path fill="#00589F" d="m19.648 23.457 2.364-13.988h3.785L23.43 23.457zM37.145 9.816c-.747-.285-1.922-.59-3.387-.59-3.738 0-6.371 1.899-6.395 4.618-.02 2.008 1.88 3.129 3.313 3.8 1.472.684 1.969 1.122 1.96 1.735-.007.937-1.175 1.363-2.261 1.363-1.512 0-2.316-.21-3.559-.734l-.488-.219-.531 3.129c.883.39 2.515.73 4.215.746 3.976 0 6.554-1.875 6.582-4.777.015-1.59-.992-2.801-3.172-3.801-1.324-.649-2.133-1.078-2.125-1.734 0-.582.683-1.204 2.168-1.204a6.948 6.948 0 0 1 2.828.536l.34.164.512-3.032M46.844 9.484h-2.922c-.906 0-1.582.25-1.98 1.16l-5.618 12.817h3.973s.648-1.723.797-2.102l4.84.008c.113.488.46 2.094.46 2.094h3.512L46.844 9.484M42.18 18.5l1.508-3.914c-.024.039.308-.809.5-1.332l.257 1.203.875 4.04h-3.14M16.477 9.48l-3.704 9.54-.394-1.938c-.688-2.238-2.836-4.656-5.238-5.867l3.386 12.23 4-.008L20.484 9.48h-4.007"/><g clip-path="url(#a)"><path fill="#F9A51A" d="M9.34 9.473H3.238l-.047.289c4.746 1.16 7.887 3.957 9.188 7.32l-1.324-6.43c-.23-.886-.895-1.148-1.715-1.18"/></g></svg>