<?xml version="1.0" encoding="utf-8"?>
<!-- Generator: Adobe Illustrator 28.1.0, SVG Export Plug-In . SVG Version: 6.00 Build 0)  -->
<svg version="1.1" id="Layer_1" xmlns="http://www.w3.org/2000/svg" xmlns:xlink="http://www.w3.org/1999/xlink" x="0px" y="0px"
	 viewBox="0 0 99.9 61.1" style="enable-background:new 0 0 99.9 61.1;" xml:space="preserve">
<style type="text/css">
	.st0{fill:#FFFFFF;}
	.st1{fill:#D00070;}
	.st2{fill:#6D2077;}
</style>
<path class="st0" d="M6.8,4.1h86.4v52.8H6.8V4.1z"/>
<path class="st0" d="M-11.2-6.8h122.3v74.8H-11.2V-6.8z"/>
<g>
	<g>
		<path class="st1" d="M24.2,41.1L24.2,41.1c0-0.6-0.2-1-0.5-1.3l0,0l0,0h0c-0.3-0.3-0.8-0.4-1.3-0.4c0,0,0,0,0,0c0,0,0,0,0,0l0,0
			c0,0,0,0,0,0c0,0,0,0,0,0l0,0c0,0,0,0,0,0h0c0,0,0,0,0,0c0,0,0,0,0,0c-0.5,0-1,0.2-1.3,0.4h0l0,0c-0.3,0.3-0.5,0.8-0.5,1.3l0,0
			l0,0l0,2.8c0,0,0,0.1,0,0.1c0,0,0.1,0,0.1,0H21c0,0,0.1,0,0.1,0c0,0,0-0.1,0-0.1l0-2.7c0-0.4,0.1-0.7,0.3-0.9
			c0.2-0.2,0.5-0.3,0.8-0.3c0.4,0,0.6,0.1,0.8,0.3c0.2,0.2,0.3,0.5,0.3,0.9l0,2.7c0,0,0,0.1,0,0.1c0,0,0.1,0,0.1,0h0.5
			c0,0,0.1,0,0.1,0c0,0,0-0.1,0-0.1L24.2,41.1z"/>
		<path class="st1" d="M41.8,41.1L41.8,41.1c0-0.6-0.2-1-0.5-1.3l0,0l0,0h0c-0.3-0.3-0.8-0.4-1.3-0.4c0,0,0,0,0,0c0,0,0,0,0,0l0,0
			c0,0,0,0,0,0c0,0,0,0,0,0l0,0c0,0,0,0,0,0h0c0,0,0,0,0,0c0,0,0,0,0,0c-0.5,0-1,0.2-1.3,0.4h0l0,0c-0.3,0.3-0.5,0.8-0.5,1.3l0,0
			l0,0l0,2.8c0,0,0,0.1,0,0.1c0,0,0.1,0,0.1,0h0.5c0,0,0.1,0,0.1,0c0,0,0-0.1,0-0.1l0-2.7c0-0.4,0.1-0.7,0.3-0.9
			c0.2-0.2,0.5-0.3,0.8-0.3c0.4,0,0.6,0.1,0.8,0.3c0.2,0.2,0.3,0.5,0.3,0.9l0,2.7c0,0,0,0.1,0,0.1c0,0,0.1,0,0.1,0h0.5
			c0,0,0.1,0,0.1,0c0,0,0-0.1,0-0.1L41.8,41.1z"/>
		<path class="st1" d="M32.4,41.7L32.4,41.7L32.4,41.7L32.4,41.7c0,0.5,0,0.9-0.2,1.2c-0.2,0.3-0.4,0.5-1,0.5c0,0,0,0,0,0h0
			c-0.5,0-0.8-0.2-1-0.5c-0.2-0.3-0.2-0.8-0.2-1.2v0c0-0.4,0-0.8,0.2-1.1c0.2-0.3,0.4-0.5,1-0.5h0h0h0c0.5,0,0.8,0.2,1,0.5
			C32.3,40.9,32.4,41.2,32.4,41.7L32.4,41.7z M32.5,39.8C32.5,39.8,32.5,39.8,32.5,39.8c-0.3-0.3-0.8-0.4-1.3-0.4c0,0,0,0,0,0
			c-0.4,0-0.9,0.1-1.2,0.4l0,0v-0.3h0V38c0,0,0-0.1,0-0.1c0,0-0.1,0-0.1,0h-0.5c0,0-0.1,0-0.1,0c0,0,0,0.1,0,0.1v1.4h0v3h0v1.4
			c0,0,0,0.1,0,0.1c0,0,0.1,0,0.1,0h0.5c0,0,0.1,0,0.1,0c0,0,0-0.1,0-0.1v-0.3c0.3,0.4,0.8,0.5,1.2,0.5h0c0.5,0,1-0.2,1.3-0.4
			c0.5-0.5,0.7-1.3,0.7-2C33.2,41,33,40.3,32.5,39.8"/>
		<path class="st1" d="M19,42.3c0,0.4-0.1,0.6-0.2,0.7c-0.3,0.2-0.6,0.3-1,0.3h0h0c-0.4,0-0.6-0.1-0.8-0.2c-0.1-0.1-0.2-0.2-0.2-0.5
			v0c0-0.2,0.1-0.4,0.2-0.5c0.1-0.1,0.4-0.2,0.8-0.2h0H19V42.3z M19.8,40.9L19.8,40.9c0-0.5-0.2-0.9-0.5-1.2
			c-0.3-0.3-0.8-0.4-1.4-0.4h0h0c-0.7,0-1.2,0.1-1.6,0.6l0,0l0,0c0,0-0.1,0.1-0.1,0.1c0,0,0,0,0,0l0,0c0,0,0,0.1,0,0.1
			c0,0,0,0.1,0.1,0.1l0,0c0,0,0,0,0,0l0.1,0.1l0.2,0.2c0,0,0.1,0,0.1,0c0,0,0.1,0,0.1,0l0.2-0.2h0c0.1-0.1,0.2-0.2,0.3-0.2
			c0.2-0.1,0.4-0.1,0.7-0.1h0l0,0c0.4,0,0.7,0.1,0.9,0.2c0.2,0.1,0.2,0.3,0.2,0.6c0,0,0,0,0,0v0.3h-1.3c-0.5,0-1,0.1-1.3,0.4
			c-0.3,0.2-0.5,0.6-0.5,1l0,0c0,0.4,0.1,0.7,0.4,1c0.3,0.3,0.8,0.4,1.4,0.4h0h0.3c0.6,0,1-0.1,1.3-0.5c0.3-0.3,0.4-0.7,0.4-1.3
			L19.8,40.9L19.8,40.9z"/>
		<path class="st1" d="M34.3,42.6L34.3,42.6c0-0.3,0.1-0.4,0.2-0.5c0.1-0.1,0.4-0.2,0.8-0.2h0h1.2v0.4c0,0.4-0.1,0.6-0.2,0.7
			c-0.3,0.2-0.6,0.3-1,0.3h0h0c-0.4,0-0.6-0.1-0.8-0.2C34.4,43,34.3,42.9,34.3,42.6 M37.4,40.9L37.4,40.9c0-0.5-0.2-0.9-0.5-1.2
			c-0.3-0.3-0.8-0.4-1.4-0.4h0h0c-0.7,0-1.2,0.1-1.6,0.6l0,0l0,0c0,0-0.1,0.1-0.1,0.1c0,0,0,0,0,0l0,0c0,0,0,0.1,0,0.1
			c0,0,0,0.1,0.1,0.1l0,0c0,0,0,0,0,0l0.1,0.1l0.2,0.2c0,0,0.1,0,0.1,0c0,0,0.1,0,0.1,0l0.2-0.2v0c0.1-0.1,0.2-0.2,0.3-0.2
			c0.2-0.1,0.4-0.1,0.7-0.1l0,0l0,0c0.4,0,0.7,0.1,0.9,0.2c0.2,0.1,0.2,0.3,0.2,0.6c0,0,0,0,0,0v0.3h-1.3c-0.5,0-1,0.1-1.3,0.4
			c-0.3,0.2-0.5,0.6-0.5,1l0,0c0,0.4,0.1,0.7,0.4,1c0.3,0.3,0.8,0.4,1.4,0.4h0h0.3c0.6,0,1-0.1,1.3-0.5c0.3-0.3,0.4-0.7,0.4-1.3
			L37.4,40.9L37.4,40.9z"/>
		<path class="st1" d="M12.1,39.3h-0.9l0-0.9h0l0-0.4c0-0.1-0.1-0.1-0.1-0.1h-0.5c0,0-0.1,0-0.1,0c0,0,0,0.1,0,0.1v0.8h0v4
			c0,0.3,0.1,0.6,0.3,0.8c0.2,0.2,0.5,0.4,0.9,0.4h0h0.2v0h0.2c0,0,0.1,0,0.1,0c0,0,0-0.1,0-0.1v-0.5c0,0,0-0.1,0-0.1
			c0,0-0.1,0-0.1,0h-0.4c-0.1,0-0.1,0-0.2,0c0,0-0.1,0-0.1,0c0,0,0,0-0.1,0c-0.1-0.1-0.1-0.2-0.1-0.4v-2.6h0.9c0,0,0.1,0,0.1,0
			c0,0,0-0.1,0-0.1v-0.5c0,0,0-0.1,0-0.1C12.1,39.3,12.1,39.3,12.1,39.3"/>
		<path class="st1" d="M15.7,39.9L15.7,39.9C15.7,39.8,15.7,39.8,15.7,39.9L15.7,39.9L15.7,39.9l-0.1-0.1l0,0l0,0
			c-0.3-0.3-0.6-0.4-1-0.4c0,0,0,0,0,0c-0.3,0-0.6,0.1-0.8,0.4l-0.1,0.2v-0.1v-0.3c0,0,0-0.1,0-0.1c0,0-0.1,0-0.1,0h-0.5
			c0,0-0.1,0-0.1,0c0,0,0,0.1,0,0.1v0.3v4.2c0,0,0,0.1,0,0.1c0,0,0.1,0,0.1,0H13c0,0,0,0,0,0h0.3c0,0,0,0,0,0h0.1c0,0,0.1,0,0.1,0
			c0,0,0-0.1,0-0.1v-0.1c0,0,0,0,0,0v-2.6c0,0,0,0,0,0V41c0-0.2,0.1-0.5,0.2-0.6c0.1-0.2,0.3-0.3,0.6-0.3c0.1,0,0.2,0,0.3,0.1
			c0.1,0,0.2,0.1,0.3,0.2l0,0l0.1,0.1c0,0,0.1,0,0.1,0c0,0,0.1,0,0.1,0l0.4-0.3c0,0,0-0.1,0.1-0.1C15.8,40,15.8,39.9,15.7,39.9"/>
		<path class="st1" d="M28.2,41.6C28.2,41.6,28.2,41.6,28.2,41.6L28.2,41.6c-0.3-0.2-0.7-0.3-1.1-0.3l-0.7-0.1
			c-0.3,0-0.5-0.1-0.6-0.2c-0.1-0.1-0.2-0.2-0.2-0.4v0h0l0,0c0-0.2,0.1-0.4,0.2-0.5c0.2-0.1,0.4-0.2,0.8-0.2h0h0
			c0.4,0,0.8,0.1,1.1,0.3l0,0l0.2,0.1c0,0,0.1,0,0.1,0c0,0,0.1,0,0.1-0.1l0.3-0.4c0,0,0-0.1,0-0.1c0,0,0,0,0-0.1c0,0,0,0,0-0.1l0,0
			c-0.4-0.3-1.1-0.5-1.7-0.5c-0.5,0-1,0.1-1.3,0.4c-0.3,0.2-0.5,0.6-0.5,1l0,0v0l0,0c0,0.4,0.1,0.7,0.4,0.9c0.3,0.2,0.7,0.3,1.1,0.4
			l0.8,0.1c0.3,0,0.5,0.1,0.6,0.2c0.1,0.1,0.1,0.2,0.1,0.4v0v0c0,0.2-0.1,0.4-0.3,0.5c-0.2,0.1-0.5,0.2-0.9,0.2h0c0,0,0,0,0,0h0
			c-0.6,0-1-0.1-1.3-0.4l-0.2-0.1c0,0-0.1,0-0.1,0c0,0-0.1,0-0.1,0.1l-0.3,0.4c0,0,0,0.1,0,0.1c0,0,0,0.1,0,0.1l0.2,0.1l0,0
			c0,0,0,0,0,0l0,0l0,0c0.5,0.3,1.1,0.5,1.8,0.5h0c0.6,0,1.1-0.1,1.4-0.4c0.4-0.2,0.6-0.6,0.6-1.1v0C28.7,42.1,28.5,41.8,28.2,41.6"
			/>
		<path class="st1" d="M46.5,43.8L45.8,43l-1.2-1.8l1-1l0.6-0.6l0,0c0.1-0.1,0-0.1,0-0.2c0,0-0.1,0-0.1,0h-0.6c0,0-0.1,0-0.1,0.1
			c0,0,0,0,0,0l-2.2,2.3v-1.9V38c0,0,0-0.1,0-0.1c0,0-0.1,0-0.1,0h-0.5c0,0-0.1,0-0.1,0c0,0,0,0.1,0,0.1v1.7v4.2c0,0,0,0.1,0,0.1
			c0,0,0.1,0,0.1,0H43c0,0,0.1,0,0.1,0c0,0,0-0.1,0-0.1v-1.2l0.9-1l0.6,0.9h0l0.9,1.3c0,0,0.1,0.1,0.1,0.1h0.6c0,0,0.1,0,0.1,0
			C46.5,44,46.5,43.9,46.5,43.8z"/>
	</g>
	<g>
		<path class="st2" d="M51.7,26.6L51.7,26.6L51.7,26.6L51.7,26.6c0,1.4-0.1,2.7-0.7,3.7c-0.5,0.9-1.3,1.5-2.9,1.5c0,0,0,0-0.1,0h0
			c-1.6,0-2.4-0.6-2.9-1.5c-0.5-0.9-0.7-2.3-0.7-3.6v-0.1c0-1.3,0.1-2.4,0.7-3.4c0.5-0.9,1.3-1.5,2.9-1.5h0h0h0
			c1.6,0,2.4,0.6,2.9,1.5C51.6,24.1,51.7,25.2,51.7,26.6L51.7,26.6z M52.2,20.9C52.2,20.9,52.2,20.9,52.2,20.9
			c-0.9-0.8-2.3-1.3-3.8-1.3c0,0-0.1,0-0.1,0c-1.3,0-2.6,0.3-3.7,1.2l0,0V20h0v-4.3c0-0.1,0-0.2-0.1-0.3c-0.1-0.1-0.2-0.1-0.3-0.1
			h-1.5c-0.1,0-0.2,0-0.3,0.1c-0.1,0.1-0.1,0.2-0.1,0.3V20h0v9h0v4.2c0,0.1,0,0.2,0.1,0.3c0.1,0.1,0.2,0.1,0.3,0.1h1.5
			c0.1,0,0.2,0,0.3-0.1c0.1-0.1,0.1-0.2,0.1-0.3v-0.9c1,1.1,2.4,1.5,3.7,1.5h0.1c1.6,0,3-0.5,3.8-1.3c1.6-1.5,2-3.8,2-6
			C54.1,24.4,53.7,22.4,52.2,20.9"/>
		<path class="st2" d="M65.4,26.9c0,1.3-0.1,2.4-0.7,3.4c-0.5,0.9-1.3,1.5-2.9,1.5h0h0h0c-1.6,0-2.4-0.6-2.9-1.5
			c-0.5-0.9-0.7-2-0.7-3.4v-0.1c0-1.4,0.1-2.7,0.7-3.6c0.5-0.9,1.3-1.5,2.9-1.5h0c0,0,0,0,0.1,0c1.6,0,2.4,0.6,2.9,1.5
			c0.5,0.9,0.7,2.3,0.7,3.6V26.9L65.4,26.9L65.4,26.9L65.4,26.9z M65.8,32.5c1.6-1.5,1.9-3.6,1.9-5.7c0-2.2-0.4-4.5-2-6
			c-0.9-0.8-2.2-1.3-3.8-1.3h-0.1c-1.3,0-2.7,0.4-3.7,1.5v-0.9c0-0.1,0-0.2-0.1-0.3c-0.1-0.1-0.2-0.1-0.3-0.1h-1.5
			c-0.1,0-0.2,0-0.3,0.1c-0.1,0.1-0.1,0.2-0.1,0.3v4.2h0v9h0v4.3c0,0.1,0,0.2,0.1,0.3c0.1,0.1,0.2,0.1,0.3,0.1h1.5
			c0.1,0,0.2,0,0.3-0.1c0.1-0.1,0.1-0.2,0.1-0.3v-4.3h0v-0.8l0,0c1.1,1,2.4,1.2,3.7,1.2c0,0,0.1,0,0.1,0
			C63.6,33.8,64.9,33.3,65.8,32.5C65.8,32.5,65.8,32.5,65.8,32.5"/>
		<path class="st2" d="M87.1,34.9c-0.1,0.4-0.4,0.9-0.5,1.3c0,0-0.3,0.6-0.7,1c-0.4,0.4-0.8,0.6-1.3,0.8c-0.5,0.1-0.8,0.2-0.8,0.2
			c-0.4,0-0.9,0-1.2,0c-0.3,0-0.5-0.3-0.5-0.7v-1c0-0.4,0.2-0.7,0.3-0.7c0.2,0,0.6,0,1-0.1c0,0,0.3,0,0.5-0.2
			c0.3-0.2,0.4-0.5,0.4-0.5c0.2-0.3,0.4-0.9,0.5-1.3l0.3-0.8c0.1-0.4,0.1-0.9,0-1.3L81,20.4c-0.1-0.4,0.1-0.6,0.4-0.6h1.4
			c0.4,0,0.8,0.3,0.9,0.6l2.7,8c0.1,0.4,0.3,0.4,0.4,0l2.6-8c0.1-0.4,0.5-0.6,0.9-0.6H92c0.4,0,0.6,0.3,0.4,0.6L87.1,34.9z"/>
		<path class="st2" d="M71.3,29.6L71.3,29.6c0-0.7,0.2-1.2,0.6-1.5c0.4-0.3,1.2-0.5,2.2-0.5h0h3.7v1.1c0,1.1-0.2,1.7-0.6,2
			c-0.8,0.7-1.8,0.8-3,0.8h0h0c-1.2,0-1.9-0.2-2.3-0.5C71.5,30.7,71.3,30.3,71.3,29.6 M80.3,24.3L80.3,24.3c0-1.4-0.5-2.6-1.5-3.4
			c-1-0.8-2.4-1.2-4.3-1.2h-0.1h0c-1.9,0-3.5,0.4-4.6,1.7l0,0l-0.1,0.1c-0.1,0.1-0.2,0.2-0.3,0.3c0,0,0,0,0,0l-0.1,0.1
			c-0.1,0.1-0.1,0.2-0.1,0.3c0,0.1,0.1,0.2,0.2,0.3l0.1,0.1c0,0,0.1,0.1,0.1,0.1l0.3,0.2l0.7,0.6c0.1,0.1,0.2,0.1,0.3,0.1
			c0.1,0,0.2-0.1,0.3-0.1l0.4-0.5v0c0.3-0.3,0.6-0.5,0.9-0.7c0.5-0.2,1.1-0.3,2-0.3l0,0l0,0c1.3,0,2.1,0.3,2.5,0.7
			c0.5,0.4,0.7,1,0.7,1.9c0,0,0,0,0,0v0.9H74c-1.5,0-2.8,0.4-3.8,1.1c-0.9,0.7-1.4,1.8-1.4,3.1l0,0c0,1.1,0.4,2.1,1.1,2.8
			c1,1,2.3,1.3,4.2,1.3h0h1c1.8,0,3.1-0.4,3.9-1.3c0.8-0.9,1.2-2.2,1.2-3.8L80.3,24.3L80.3,24.3z"/>
		<path class="st2" d="M26.9,19.8c-0.4,0-0.8,0.3-0.9,0.7l-2.6,9.1c-0.1,0.4-0.3,0.4-0.4,0l-3-9.1c-0.1-0.4-0.5-0.7-0.9-0.7h-0.5
			c-0.4,0-0.8,0.3-0.9,0.7l-3,9.1c-0.1,0.4-0.3,0.4-0.4,0l-2.6-9.1c-0.1-0.4-0.5-0.7-0.9-0.7H9.5c-0.4,0-0.6,0.3-0.5,0.7L13,33
			c0.1,0.4,0.5,0.7,0.9,0.7h0.8c0.4,0,0.7-0.3,0.8-0.6l3-8.9c0.1-0.4,0.3-0.4,0.5,0l3,8.8c0.1,0.4,0.6,0.7,0.9,0.7h0.7
			c0.4,0,0.8-0.3,0.9-0.6l4-12.6c0.1-0.4-0.1-0.7-0.5-0.7H26.9z"/>
		<path class="st2" d="M40.5,26.3c0-4.1-2.2-6.7-5.7-6.7c-3.6,0-5.7,2.7-5.7,7.1c0,4.6,2.2,7.1,6.1,7.1c2.4,0,3.7-0.8,5.1-2.1
			l0.2-0.2L38.6,30l-0.2,0.2c-1.1,1.1-2,1.5-3.4,1.5c-2.3,0-3.6-1.5-3.7-4.2h9V26.3z M31.4,25.5c0-0.9,0.1-1.3,0.4-1.9
			c0.5-1.2,1.6-1.9,2.9-1.9c1.3,0,2.4,0.7,2.9,1.9c0.3,0.7,0.3,1,0.4,1.9H31.4z"/>
		<path class="st1" d="M6,22.6c0.8,0,1.4-0.6,1.4-1.4c0-0.8-0.6-1.4-1.4-1.4c-0.8,0-1.4,0.6-1.4,1.4C4.6,22,5.2,22.6,6,22.6"/>
		<path class="st1" d="M92.4,33.7c0.8,0,1.4-0.6,1.4-1.4c0-0.8-0.6-1.4-1.4-1.4c-0.8,0-1.4,0.6-1.4,1.4
			C90.9,33.1,91.6,33.7,92.4,33.7"/>
	</g>
</g>
</svg>
